<?xml version="1.0" encoding="UTF-8" standalone="no"?>

<svg width="100%" height="100%" viewBox="0 0 883 200" version="1.1" xmlns="http://www.w3.org/2000/svg" xmlns:xlink="http://www.w3.org/1999/xlink" xml:space="preserve" xmlns:serif="http://www.serif.com/" style="fill-rule:evenodd;clip-rule:evenodd;stroke-linejoin:round;stroke-miterlimit:2;">
    <g id="ZonaLogo.com" transform="matrix(2.775078,0,0,2.757133,-224.518785,-396.283936)">
        <path d="M180.552,179.522L190.403,153.331C195.218,153.074 198.342,153.331 201.209,153.552C204.333,153.809 207.935,154.766 208.67,157.893C210.104,163.925 203.855,173.269 194.96,177.131C189.19,179.559 185.845,180.037 180.552,179.559L180.552,179.522ZM80.942,187.468L116.706,149.211C120.639,144.981 124.094,144.062 127.513,143.914C130.894,143.767 145.045,143.914 145.045,143.914L153.426,184.598L164.967,152.853L163.534,143.73L210.361,143.73C220.432,143.73 227.637,145.165 230.761,149.506C233.885,154.067 234.363,159.842 229.805,168.008C225.468,176.432 218.264,181.472 209.148,184.598C202.9,186.989 194.813,187.468 184.154,187.468L128.431,187.468L122.44,159.585L98.659,187.468L80.905,187.468L80.942,187.468Z" style="fill:white;"/>
        <path d="M227.09,187.468L243.52,143.73L269.36,143.73L252.966,187.468L226.869,187.468L227.09,187.468Z" style="fill:white;"/>
        <path d="M259.223,187.468L274.514,147.372L275.506,143.73L326.451,143.73C336.926,143.73 341.778,151.86 334.684,159.989L325.458,169.701L332.258,182.575L335.162,187.468L307.007,187.468L299.251,169.002L314.284,152.485L298.736,152.963L285.394,187.468L259.187,187.468L259.223,187.468Z" style="fill:white;"/>
        <path d="M360.437,148.845C364.517,144.688 368.267,143.952 371.428,143.952L389.216,143.952L398.553,187.469L372.42,187.469L366.576,158.593L341.875,187.469L323.534,187.469L360.437,148.845Z" style="fill:white;"/>
        <path d="M158.209,167.165L100.134,185.741L115.976,167.165L158.209,167.165Z" style="fill:rgb(252,222,6);"/>
        <path d="M155.52,215.975L155.52,198.392L167.503,198.392L167.503,202.659L160.151,202.659L160.151,205.234L165.922,205.234L165.922,209.501L160.151,209.501L160.151,215.975L155.52,215.975Z" style="fill:white;fill-rule:nonzero;"/>
        <rect x="192.018" y="198.392" width="4.631" height="17.546" style="fill:white;fill-rule:nonzero;"/>
        <path d="M222.01,215.938L222.01,198.392L226.899,198.392L233.735,208.029L233.735,198.392L238.366,198.392L238.366,215.938L233.735,215.938L226.641,205.933L226.641,215.938L222.01,215.938Z" style="fill:white;fill-rule:nonzero;"/>
        <path d="M262.4,215.938L269.127,198.392L274.089,198.392L280.815,215.938L275.89,215.938L274.871,213.143L268.344,213.143L267.325,215.938L262.4,215.938ZM271.608,204.19L269.833,209.059L273.382,209.059L271.608,204.19Z" style="fill:white;fill-rule:nonzero;"/>
        <path d="M304.828,215.938L304.828,198.392L309.717,198.392L316.553,208.029L316.553,198.392L321.185,198.392L321.185,215.938L316.553,215.938L309.46,205.933L309.46,215.938L304.828,215.938Z" style="fill:white;fill-rule:nonzero;"/>
        <path d="M354.62,216.27C352.856,216.27 351.312,215.865 349.989,215.092C348.666,214.32 347.6,213.253 346.828,211.892C346.056,210.531 345.689,208.949 345.689,207.184C345.689,205.418 346.056,203.836 346.828,202.475C347.6,201.114 348.666,200.047 349.989,199.275C351.312,198.502 352.893,198.098 354.62,198.098C355.98,198.098 357.193,198.319 358.259,198.797C359.325,199.275 360.281,199.9 361.053,200.746C361.825,201.592 362.45,202.549 362.854,203.652L358.443,205.05C358.223,204.498 357.892,204.02 357.524,203.616C357.157,203.211 356.715,202.88 356.238,202.659C355.76,202.438 355.172,202.328 354.584,202.328C353.775,202.328 353.04,202.549 352.415,202.953C351.79,203.358 351.276,203.91 350.908,204.646C350.541,205.381 350.357,206.191 350.357,207.147C350.357,208.103 350.541,208.913 350.908,209.648C351.276,210.384 351.79,210.936 352.415,211.34C353.04,211.745 353.812,211.966 354.62,211.966C355.282,211.966 355.833,211.855 356.311,211.635C356.789,211.414 357.193,211.083 357.524,210.678C357.855,210.274 358.149,209.795 358.406,209.244L362.817,210.641C362.413,211.745 361.825,212.701 361.053,213.547C360.281,214.394 359.325,215.056 358.223,215.497C357.12,215.975 355.907,216.196 354.547,216.196L354.62,216.27Z" style="fill:white;fill-rule:nonzero;"/>
        <path d="M387.15,215.938L387.15,198.392L398.911,198.392L398.911,202.659L391.818,202.659L391.818,205.087L397.59,205.087L397.59,209.207L391.818,209.207L391.818,211.671L399.095,211.671L399.095,215.938L387.186,215.938L387.15,215.938Z" style="fill:white;fill-rule:nonzero;"/>
    </g>
</svg>
